<?xml version="1.0" standalone="no"?>
<!DOCTYPE svg PUBLIC "-//W3C//DTD SVG 20010904//EN"
 "http://www.w3.org/TR/2001/REC-SVG-20010904/DTD/svg10.dtd">
<svg version="1.0" xmlns="http://www.w3.org/2000/svg"
 width="297.000000pt" height="297.000000pt" viewBox="0 0 297.000000 297.000000"
 preserveAspectRatio="xMidYMid meet">
<metadata>
Created by potrace 1.14, written by Peter Selinger 2001-2017
</metadata>
<g transform="translate(0.000000,297.000000) scale(0.100000,-0.100000)"
fill="#000000" stroke="none">
<path d="M301 2950 c-68 -25 -131 -73 -171 -131 -63 -93 -60 -23 -58 -1353 l3
-1211 28 -55 c49 -95 119 -155 214 -183 39 -12 113 -15 340 -15 162 0 313 5
340 10 57 13 137 62 177 109 16 19 41 59 55 89 l26 55 0 1220 0 1220 -27 57
c-35 75 -95 138 -165 174 l-58 29 -325 2 c-301 3 -329 2 -379 -17z"/>
<path d="M1549 2947 c-58 -39 -60 -48 -57 -312 3 -222 5 -244 25 -287 26 -58
91 -129 146 -162 97 -56 130 -60 527 -60 353 0 367 1 432 23 71 24 147 74 187
123 13 16 35 55 47 86 21 51 24 72 23 192 -1 107 -5 146 -20 187 -23 60 -94
139 -159 176 -93 53 -115 55 -636 56 l-482 1 -33 -23z"/>
<path d="M1777 1903 c-123 -25 -221 -95 -275 -196 l-27 -52 -3 -245 c-3 -216
-2 -249 14 -277 33 -63 32 -63 556 -63 505 0 524 2 624 51 41 21 107 78 139
121 41 55 54 129 51 283 -3 98 -7 128 -25 165 -46 98 -121 163 -232 201 -61
20 -82 21 -413 23 -243 1 -367 -2 -409 -11z"/>
<path d="M1553 848 c-17 -4 -43 -22 -57 -39 l-26 -31 0 -342 c0 -332 1 -344
21 -370 41 -52 23 -51 659 -52 614 -1 635 0 674 38 31 32 34 57 32 293 -1 240
-1 240 -28 295 -51 104 -163 187 -280 209 -61 11 -953 11 -995 -1z"/>
</g>
</svg>
