<svg width="158" height="31" viewBox="0 0 158 31" fill="none" xmlns="http://www.w3.org/2000/svg">
<path d="M14.1526 22.5291C14.1526 21.8911 14.7574 21.3738 15.5035 21.3738H24.1492C26.3874 21.3738 28.2018 22.9255 28.2018 24.8397V28.7676C28.2018 29.4056 27.597 29.9228 26.8509 29.9228H15.5035C14.7574 29.9228 14.1526 29.4056 14.1526 28.7676V22.5291Z" fill="#4883B9"/>
<path d="M14.1526 14.1527C14.1526 12.2386 15.967 10.6869 18.2053 10.6869H24.1492C26.3874 10.6869 28.2018 12.2386 28.2018 14.1527V15.7701C28.2018 17.6842 26.3874 19.2359 24.1492 19.2359H15.5035C14.7574 19.2359 14.1526 18.7186 14.1526 18.0806V14.1527Z" fill="#49ABAB"/>
<path d="M14.3848 1.15521C14.3848 0.51717 14.9896 -6.10352e-05 15.7357 -6.10352e-05H24.3813C26.6196 -6.10352e-05 28.434 1.55163 28.434 3.46574V5.08312C28.434 6.99723 26.6196 8.54892 24.3813 8.54892H18.4374C16.1992 8.54892 14.3848 6.99723 14.3848 5.08312V1.15521Z" fill="#49ABAB"/>
<path d="M0 3.46581C0 1.55169 1.55169 0 3.4658 0H8.54899C10.4631 0 12.0148 1.55169 12.0148 3.46581V26.5712C12.0148 28.4853 10.4631 30.037 8.54899 30.037H3.46581C1.55169 30.037 0 28.4853 0 26.5712V3.46581Z" fill="#4883B9"/>
<path d="M46.217 3.91114H60.0073V8.12463H51.3771V12.6764H57.8347V16.7669H51.3771V25.5014H46.217V3.91114Z" fill="#1F4062"/>
<path d="M67.8794 3.91114V21.4417H74.6387V25.5014H62.7194V3.91114H67.8794Z" fill="#1F4062"/>
<path d="M90.2867 21.6878H82.3807L81.1133 25.5014H75.7119L83.3765 3.91114H89.3513L97.0159 25.5014H91.5541L90.2867 21.6878ZM86.3337 9.72391L83.7386 17.6281H88.959L86.3337 9.72391Z" fill="#1F4062"/>
<path d="M118.299 3.91114V25.5014H113.139L104.509 12.1843V25.5014H99.3486V3.91114H104.509L113.139 17.2897V3.91114H118.299Z" fill="#1F4062"/>
<path d="M121.164 14.6755C121.164 13.0557 121.426 11.5795 121.949 10.2468C122.472 8.89351 123.206 7.73506 124.152 6.77139C125.097 5.78722 126.214 5.02858 127.501 4.49549C128.809 3.94189 130.247 3.66509 131.816 3.66509C133.084 3.66509 134.26 3.83937 135.347 4.18793C136.433 4.5365 137.409 5.03883 138.274 5.69495C139.139 6.35107 139.873 7.15071 140.477 8.09387C141.1 9.01654 141.563 10.0622 141.865 11.2309H136.192C135.749 10.3083 135.146 9.62139 134.381 9.17031C133.617 8.69873 132.742 8.46294 131.756 8.46294C130.971 8.46294 130.247 8.60646 129.583 8.89351C128.919 9.18056 128.356 9.60089 127.893 10.1545C127.431 10.6876 127.069 11.3437 126.807 12.1228C126.545 12.8815 126.415 13.7324 126.415 14.6755C126.415 15.6392 126.545 16.5004 126.807 17.259C127.069 18.0176 127.431 18.6737 127.893 19.2273C128.356 19.7604 128.919 20.1705 129.583 20.4576C130.247 20.7446 130.971 20.8881 131.756 20.8881C132.742 20.8881 133.617 20.6626 134.381 20.2115C135.146 19.7399 135.749 19.0428 136.192 18.1201H141.865C141.563 19.2888 141.1 20.3448 140.477 21.2879C139.873 22.2106 139.139 23 138.274 23.6561C137.409 24.2917 136.433 24.7838 135.347 25.1324C134.26 25.4809 133.084 25.6552 131.816 25.6552C130.247 25.6552 128.809 25.3887 127.501 24.8556C126.214 24.3225 125.097 23.5741 124.152 22.6104C123.206 21.6263 122.472 20.4678 121.949 19.1351C121.426 17.7818 121.164 16.2953 121.164 14.6755Z" fill="#1F4062"/>
<path d="M158 8.12463H150.185V12.4919H157.095V16.5516H150.185V21.2879H158V25.5014H145.025V3.91114H158V8.12463Z" fill="#1F4062"/>
</svg>
