<svg width="107" height="22" viewBox="0 0 107 22" fill="none" xmlns="http://www.w3.org/2000/svg">
<path d="M9.97925 15.8855C9.97925 15.4356 10.4057 15.0709 10.9318 15.0709H17.0279C18.6061 15.0709 19.8855 16.165 19.8855 17.5147V20.2843C19.8855 20.7342 19.459 21.0989 18.933 21.0989H10.9318C10.4057 21.0989 9.97925 20.7342 9.97925 20.2843V15.8855Z" fill="#4883B9"/>
<path d="M9.97925 9.97929C9.97925 8.62963 11.2586 7.53552 12.8368 7.53552H17.0279C18.6061 7.53552 19.8855 8.62963 19.8855 9.97929V11.1197C19.8855 12.4694 18.6061 13.5635 17.0279 13.5635H10.9318C10.4057 13.5635 9.97925 13.1988 9.97925 12.7489V9.97929Z" fill="#49ABAB"/>
<path d="M10.1426 0.814589C10.1426 0.364704 10.569 0 11.0951 0H17.1912C18.7694 0 20.0488 1.09411 20.0488 2.44377V3.58419C20.0488 4.93385 18.7694 6.02796 17.1912 6.02796H13.0001C11.422 6.02796 10.1426 4.93385 10.1426 3.58419V0.814589Z" fill="#49ABAB"/>
<path d="M0 2.44401C0 1.09436 1.09411 0.000244141 2.44377 0.000244141H6.02796C7.37762 0.000244141 8.47173 1.09436 8.47173 2.44401V18.7358C8.47173 20.0855 7.37762 21.1796 6.02796 21.1796H2.44377C1.09411 21.1796 0 20.0855 0 18.7358V2.44401Z" fill="#4883B9"/>
<path d="M28 2.75747H37.7236V5.72844H31.6384V8.93795H36.1917V11.8222H31.6384V17.981H28V2.75747Z" fill="#1F4062"/>
<path d="M43.2743 2.75747V15.1184H48.0404V17.981H39.6359V2.75747H43.2743Z" fill="#1F4062"/>
<path d="M59.0739 15.2919H53.4993L52.6056 17.981H48.797L54.2014 2.75747H58.4143L63.8187 17.981H59.9675L59.0739 15.2919ZM56.2866 6.85611L54.4568 12.4294H58.1377L56.2866 6.85611Z" fill="#1F4062"/>
<path d="M78.8255 2.75747V17.981H75.1871L69.1019 8.59098V17.981H65.4635V2.75747H69.1019L75.1871 12.1908V2.75747H78.8255Z" fill="#1F4062"/>
<path d="M80.8458 10.3475C80.8458 9.20541 81.0302 8.16449 81.3991 7.22477C81.7679 6.27059 82.2856 5.45375 82.9523 4.77426C83.619 4.08031 84.4062 3.54539 85.314 3.1695C86.236 2.77916 87.2503 2.58398 88.3567 2.58398C89.2503 2.58398 90.0801 2.70687 90.8461 2.95265C91.6121 3.19842 92.3 3.55262 92.91 4.01525C93.5199 4.47789 94.0377 5.04172 94.4632 5.70675C94.9029 6.35733 95.2292 7.09465 95.4419 7.91872H91.4418C91.1298 7.26814 90.7042 6.78382 90.1652 6.46576C89.6262 6.13324 89.0092 5.96699 88.3141 5.96699C87.7609 5.96699 87.2503 6.06819 86.7822 6.27059C86.3141 6.47299 85.9169 6.76936 85.5906 7.15971C85.2644 7.5356 85.0091 7.99823 84.8247 8.54761C84.6403 9.08253 84.5481 9.6825 84.5481 10.3475C84.5481 11.027 84.6403 11.6342 84.8247 12.1692C85.0091 12.7041 85.2644 13.1667 85.5906 13.5571C85.9169 13.9329 86.3141 14.2221 86.7822 14.4245C87.2503 14.6269 87.7609 14.7281 88.3141 14.7281C89.0092 14.7281 89.6262 14.5691 90.1652 14.251C90.7042 13.9185 91.1298 13.4269 91.4418 12.7764H95.4419C95.2292 13.6004 94.9029 14.345 94.4632 15.01C94.0377 15.6606 93.5199 16.2172 92.91 16.6798C92.3 17.128 91.6121 17.475 90.8461 17.7207C90.0801 17.9665 89.2503 18.0894 88.3567 18.0894C87.2503 18.0894 86.236 17.9015 85.314 17.5256C84.4062 17.1497 83.619 16.622 82.9523 15.9425C82.2856 15.2486 81.7679 14.4317 81.3991 13.492C81.0302 12.5378 80.8458 11.4897 80.8458 10.3475Z" fill="#1F4062"/>
<path d="M106.819 5.72844H101.308V8.80784H106.181V11.6704H101.308V15.01H106.819V17.981H97.6701V2.75747H106.819V5.72844Z" fill="#1F4062"/>
</svg>
