<svg width="28" height="28" viewBox="0 0 28 28" fill="none" xmlns="http://www.w3.org/2000/svg">
<path d="M17 12C17 10.4087 16.3679 8.88258 15.2426 7.75736C14.1174 6.63214 12.5913 6 11 6C9.4087 6 7.88258 6.63214 6.75736 7.75736C5.63214 8.88258 5 10.4087 5 12C5 19 2 21 2 21H20C20 21 17 19 17 12Z" stroke="#383D44" stroke-width="2.5" stroke-linecap="round" stroke-linejoin="round"/>
<path d="M12.73 25C12.5542 25.3031 12.3019 25.5547 11.9982 25.7295C11.6946 25.9044 11.3504 25.9965 11 25.9965C10.6496 25.9965 10.3054 25.9044 10.0018 25.7295C9.69818 25.5547 9.44583 25.3031 9.27002 25" stroke="#383D44" stroke-width="2.5" stroke-linecap="round" stroke-linejoin="round"/>
<circle cx="24" cy="4" r="4" fill="#6DCA92"/>
</svg>
