<svg width="17" height="17" viewBox="0 0 17 17" fill="none" xmlns="http://www.w3.org/2000/svg">
<path d="M15.5832 7.43746V10.9791C15.5832 13.4583 14.1665 14.5208 12.0415 14.5208H4.95817C2.83317 14.5208 1.4165 13.4583 1.4165 10.9791V6.02079C1.4165 3.54163 2.83317 2.47913 4.95817 2.47913H9.9165" stroke="white" stroke-width="1.5" stroke-miterlimit="10" stroke-linecap="round" stroke-linejoin="round"/>
<path d="M4.9585 6.375L7.17558 8.14583C7.90517 8.72667 9.10225 8.72667 9.83183 8.14583L10.6677 7.48" stroke="white" stroke-width="1.5" stroke-miterlimit="10" stroke-linecap="round" stroke-linejoin="round"/>
<path d="M13.8123 5.66667C14.7903 5.66667 15.5832 4.87384 15.5832 3.89583C15.5832 2.91783 14.7903 2.125 13.8123 2.125C12.8343 2.125 12.0415 2.91783 12.0415 3.89583C12.0415 4.87384 12.8343 5.66667 13.8123 5.66667Z" stroke="white" stroke-width="1.5" stroke-miterlimit="10" stroke-linecap="round" stroke-linejoin="round"/>
</svg>
